<?xml version="1.0" encoding="UTF-8" standalone="no"?>
<svg
   xmlns:dc="http://purl.org/dc/elements/1.1/"
   xmlns:cc="http://creativecommons.org/ns#"
   xmlns:rdf="http://www.w3.org/1999/02/22-rdf-syntax-ns#"
   xmlns:svg="http://www.w3.org/2000/svg"
   xmlns="http://www.w3.org/2000/svg"
   xmlns:sodipodi="http://sodipodi.sourceforge.net/DTD/sodipodi-0.dtd"
   xmlns:inkscape="http://www.inkscape.org/namespaces/inkscape"
   viewBox="0.0 0.0 348.0 348.0"
   fill="none"
   version="1.1"
   id="svg6"
   sodipodi:docname="Busy Beaver.svg"
   inkscape:version="0.92.4 (5da689c313, 2019-01-14)">
  <metadata
     id="metadata12">
    <rdf:RDF>
      <cc:Work
         rdf:about="">
        <dc:format>image/svg+xml</dc:format>
        <dc:type
           rdf:resource="http://purl.org/dc/dcmitype/StillImage" />
        <dc:title></dc:title>
      </cc:Work>
    </rdf:RDF>
  </metadata>
  <defs
     id="defs10" />
  <sodipodi:namedview
     pagecolor="#ffffff"
     bordercolor="#666666"
     borderopacity="1"
     objecttolerance="10"
     gridtolerance="10"
     guidetolerance="10"
     inkscape:pageopacity="0"
     inkscape:pageshadow="2"
     inkscape:window-width="1920"
     inkscape:window-height="1057"
     id="namedview8"
     showgrid="false"
     inkscape:zoom="2.1991339"
     inkscape:cx="165.76048"
     inkscape:cy="187.87817"
     inkscape:window-x="1272"
     inkscape:window-y="-8"
     inkscape:window-maximized="1"
     inkscape:current-layer="svg6" />
  <path
     d="M5.079 5.776h336.913v337.67H5.08z"
     id="path2"
     stroke-width="2"
     stroke="#000" />
  <path
     d="M282.734 40.554c0-8.376 6.966-15.165 15.56-15.165 4.126 0 8.084 1.597 11.001 4.441 2.918 2.844 4.558 6.702 4.558 10.724 0 8.376-6.966 15.165-15.56 15.165-8.593 0-15.559-6.79-15.559-15.165z"
     id="path4"
     stroke-width="2"
     stroke="#000" />
  <path
     style="fill:none;fill-opacity:0.33333333;fill-rule:evenodd;stroke:#000000;stroke-width:2;stroke-linecap:square;stroke-linejoin:miter;stroke-miterlimit:4;stroke-dasharray:none;stroke-dashoffset:0;stroke-opacity:1"
     d="M 25.009846,24.690903 H 245.09649 V 120.18304 H 25.009846 Z"
     id="rect822" />
  <path
     style="fill:none;fill-opacity:0.33333333;fill-rule:evenodd;stroke:#000000;stroke-width:2;stroke-linecap:square;stroke-linejoin:miter;stroke-miterlimit:4;stroke-dasharray:none;stroke-dashoffset:0;stroke-opacity:1"
     d="M 50.019695,132.4606 H 299.20871 v 30.92127 H 50.019695 Z"
     id="rect824" />
  <path
     style="fill:none;fill-opacity:0.33333333;fill-rule:evenodd;stroke:#000000;stroke-width:2.16371822;stroke-linecap:square;stroke-linejoin:miter;stroke-miterlimit:4;stroke-dasharray:none;stroke-dashoffset:0;stroke-opacity:1"
     d="M 13.24071,172.06963 H 335.53298 V 337.48764 H 13.24071 Z"
     id="rect826" />
  <path
     transform="matrix(1.1056103,0,0,1.3466345,-1.0717881,-103.02533)"
     style="fill:none;fill-opacity:0.33333333;fill-rule:evenodd;stroke:#000000;stroke-width:2;stroke-linecap:square;stroke-linejoin:miter;stroke-miterlimit:4;stroke-dasharray:none;stroke-dashoffset:0;stroke-opacity:1"
     inkscape:transform-center-x="-1.2681684e-06"
     inkscape:transform-center-y="-3.5985149"
     d="m 39.922358,322.05966 -18.513833,0 9.256917,-16.03345 z"
     id="path828" />
  <path
     style="fill:none;fill-opacity:0.33333333;fill-rule:evenodd;stroke:#000000;stroke-width:2.16371822;stroke-linecap:square;stroke-linejoin:miter;stroke-miterlimit:4;stroke-dasharray:none;stroke-dashoffset:0;stroke-opacity:1"
     d="M 21.83112,181.23825 H 42.977457 V 302.36854 H 21.83112 Z"
     id="rect830" />
  <path
     transform="matrix(1.1056103,0,0,1.3466345,-1.0717881,-103.02533)"
     style="fill:none;fill-opacity:0.33333333;fill-rule:evenodd;stroke:#000000;stroke-width:2;stroke-linecap:square;stroke-linejoin:miter;stroke-miterlimit:4;stroke-dasharray:none;stroke-dashoffset:0;stroke-opacity:1"
     inkscape:transform-center-x="-1.0556997e-06"
     inkscape:transform-center-y="-3.5985149"
     d="m 68.436188,322.05966 -18.513833,0 9.256917,-16.03345 z"
     id="path868" />
  <path
     style="fill:none;fill-opacity:0.33333333;fill-rule:evenodd;stroke:#000000;stroke-width:2.16371822;stroke-linecap:square;stroke-linejoin:miter;stroke-miterlimit:4;stroke-dasharray:none;stroke-dashoffset:0;stroke-opacity:1"
     d="M 53.402466,181.23825 H 74.548803 V 302.36854 H 53.402466 Z"
     id="rect870" />
  <path
     transform="matrix(1.1056103,0,0,1.3466345,-1.0717881,-103.02533)"
     style="fill:none;fill-opacity:0.33333333;fill-rule:evenodd;stroke:#000000;stroke-width:2;stroke-linecap:square;stroke-linejoin:miter;stroke-miterlimit:4;stroke-dasharray:none;stroke-dashoffset:0;stroke-opacity:1"
     inkscape:transform-center-y="-3.5985149"
     d="m 96.950024,322.05966 -18.513833,0 9.256917,-16.03345 z"
     id="path872" />
  <path
     style="fill:none;fill-opacity:0.33333333;fill-rule:evenodd;stroke:#000000;stroke-width:2.16371822;stroke-linecap:square;stroke-linejoin:miter;stroke-miterlimit:4;stroke-dasharray:none;stroke-dashoffset:0;stroke-opacity:1"
     d="M 84.973816,181.23825 H 106.12015 V 302.36854 H 84.973816 Z"
     id="rect874" />
  <path
     transform="matrix(1.1056103,0,0,1.3466345,-1.0717881,-103.02533)"
     style="fill:none;fill-opacity:0.33333333;fill-rule:evenodd;stroke:#000000;stroke-width:2;stroke-linecap:square;stroke-linejoin:miter;stroke-miterlimit:4;stroke-dasharray:none;stroke-dashoffset:0;stroke-opacity:1"
     inkscape:transform-center-y="-3.5985149"
     d="m 125.46386,322.05966 -18.51383,0 9.25692,-16.03345 z"
     id="path876" />
  <path
     style="fill:none;fill-opacity:0.33333333;fill-rule:evenodd;stroke:#000000;stroke-width:2.16371822;stroke-linecap:square;stroke-linejoin:miter;stroke-miterlimit:4;stroke-dasharray:none;stroke-dashoffset:0;stroke-opacity:1"
     d="M 116.54516,181.23825 H 137.6915 V 302.36854 H 116.54516 Z"
     id="rect878" />
  <path
     transform="matrix(1.1056103,0,0,1.3466345,-1.0717881,-103.02533)"
     style="fill:none;fill-opacity:0.33333333;fill-rule:evenodd;stroke:#000000;stroke-width:2;stroke-linecap:square;stroke-linejoin:miter;stroke-miterlimit:4;stroke-dasharray:none;stroke-dashoffset:0;stroke-opacity:1"
     inkscape:transform-center-y="-3.5985149"
     d="m 153.9777,322.05966 -18.51384,0 9.25692,-16.03345 z"
     id="path880" />
  <path
     style="fill:none;fill-opacity:0.33333333;fill-rule:evenodd;stroke:#000000;stroke-width:2.16371822;stroke-linecap:square;stroke-linejoin:miter;stroke-miterlimit:4;stroke-dasharray:none;stroke-dashoffset:0;stroke-opacity:1"
     d="m 148.11652,181.23825 h 21.14633 v 121.13029 h -21.14633 z"
     id="rect882" />
  <path
     transform="matrix(1.1056103,0,0,1.3466345,-1.0717881,-103.02533)"
     style="fill:none;fill-opacity:0.33333333;fill-rule:evenodd;stroke:#000000;stroke-width:2;stroke-linecap:square;stroke-linejoin:miter;stroke-miterlimit:4;stroke-dasharray:none;stroke-dashoffset:0;stroke-opacity:1"
     inkscape:transform-center-y="-3.5985149"
     d="m 182.49152,322.05966 -18.51383,0 9.25691,-16.03345 z"
     id="path888" />
  <path
     style="fill:none;fill-opacity:0.33333333;fill-rule:evenodd;stroke:#000000;stroke-width:2.16371822;stroke-linecap:square;stroke-linejoin:miter;stroke-miterlimit:4;stroke-dasharray:none;stroke-dashoffset:0;stroke-opacity:1"
     d="m 179.68785,181.23825 h 21.14634 v 121.13029 h -21.14634 z"
     id="rect890" />
  <path
     transform="matrix(1.1056103,0,0,1.3466345,-1.0717881,-103.02533)"
     style="fill:none;fill-opacity:0.33333333;fill-rule:evenodd;stroke:#000000;stroke-width:2;stroke-linecap:square;stroke-linejoin:miter;stroke-miterlimit:4;stroke-dasharray:none;stroke-dashoffset:0;stroke-opacity:1"
     inkscape:transform-center-y="-3.5985149"
     d="m 211.00535,322.05966 -18.51384,0 9.25692,-16.03345 z"
     id="path892" />
  <path
     style="fill:none;fill-opacity:0.33333333;fill-rule:evenodd;stroke:#000000;stroke-width:2.16371822;stroke-linecap:square;stroke-linejoin:miter;stroke-miterlimit:4;stroke-dasharray:none;stroke-dashoffset:0;stroke-opacity:1"
     d="m 211.2592,181.23825 h 21.14634 V 302.36854 H 211.2592 Z"
     id="rect894" />
  <path
     transform="matrix(1.1056103,0,0,1.3466345,-1.0717881,-103.02533)"
     style="fill:none;fill-opacity:0.33333333;fill-rule:evenodd;stroke:#000000;stroke-width:2;stroke-linecap:square;stroke-linejoin:miter;stroke-miterlimit:4;stroke-dasharray:none;stroke-dashoffset:0;stroke-opacity:1"
     inkscape:transform-center-y="-3.5985149"
     d="m 239.51918,322.05966 -18.51383,0 9.25692,-16.03345 z"
     id="path896" />
  <path
     style="fill:none;fill-opacity:0.33333333;fill-rule:evenodd;stroke:#000000;stroke-width:2.16371822;stroke-linecap:square;stroke-linejoin:miter;stroke-miterlimit:4;stroke-dasharray:none;stroke-dashoffset:0;stroke-opacity:1"
     d="M 242.83057,181.23825 H 263.9769 V 302.36854 H 242.83057 Z"
     id="rect898" />
  <path
     transform="matrix(1.1056103,0,0,1.3466345,-1.0717881,-103.02533)"
     style="fill:none;fill-opacity:0.33333333;fill-rule:evenodd;stroke:#000000;stroke-width:2;stroke-linecap:square;stroke-linejoin:miter;stroke-miterlimit:4;stroke-dasharray:none;stroke-dashoffset:0;stroke-opacity:1"
     inkscape:transform-center-y="-3.5985149"
     d="m 268.03301,322.05966 -18.51383,0 9.25691,-16.03345 z"
     id="path900" />
  <path
     style="fill:none;fill-opacity:0.33333333;fill-rule:evenodd;stroke:#000000;stroke-width:2.16371822;stroke-linecap:square;stroke-linejoin:miter;stroke-miterlimit:4;stroke-dasharray:none;stroke-dashoffset:0;stroke-opacity:1"
     d="m 274.40189,181.23825 h 21.14633 v 121.13029 h -21.14633 z"
     id="rect902" />
  <path
     transform="matrix(1.1056103,0,0,1.3466345,-1.0717881,-103.02533)"
     style="fill:none;fill-opacity:0.33333333;fill-rule:evenodd;stroke:#000000;stroke-width:2;stroke-linecap:square;stroke-linejoin:miter;stroke-miterlimit:4;stroke-dasharray:none;stroke-dashoffset:0;stroke-opacity:1"
     inkscape:transform-center-y="-3.5985149"
     d="m 296.54686,322.05966 -18.51383,0 9.25692,-16.03345 z"
     id="path904" />
  <path
     style="fill:none;fill-opacity:0.33333333;fill-rule:evenodd;stroke:#000000;stroke-width:2.16371822;stroke-linecap:square;stroke-linejoin:miter;stroke-miterlimit:4;stroke-dasharray:none;stroke-dashoffset:0;stroke-opacity:1"
     d="M 305.97327,181.23825 H 327.1196 V 302.36854 H 305.97327 Z"
     id="rect906" />
  <g
     aria-label="X X"
     style="font-style:normal;font-weight:normal;font-size:48px;line-height:1.25;font-family:sans-serif;text-align:center;letter-spacing:0px;word-spacing:0px;text-anchor:middle;fill:#000000;fill-opacity:1;stroke:none"
     id="text910">
    <path
       d="m 114.99066,38.563324 -24.093748,34.5 24.046878,35.296876 h -10.73438 l -19.031248,-28.734376 -19.5,28.734376 h -10.125 L 79.881287,73.485199 56.115662,38.563324 h 10.6875 L 85.600037,66.922699 104.81879,38.563324 Z"
       style="font-size:96px"
       id="path939" />
    <path
       d="m 214.55316,38.563324 -24.09375,34.5 24.04688,35.296876 h -10.73438 l -19.03125,-28.734376 -19.5,28.734376 h -10.125 L 179.44379,73.485199 155.67816,38.563324 h 10.6875 l 18.79688,28.359375 19.21875,-28.359375 z"
       style="font-size:96px"
       id="path941" />
  </g>
  <g
     aria-label="STAGE #######"
     style="font-style:normal;font-weight:normal;font-size:24px;line-height:1.25;font-family:sans-serif;text-align:center;letter-spacing:0px;word-spacing:0px;text-anchor:middle;fill:#000000;fill-opacity:1;stroke:none"
     id="text914">
    <path
       d="m 77.123596,151.58054 q 0,1.01953 -0.480469,2.01562 -0.46875,0.99609 -1.324218,1.6875 -0.9375,0.75 -2.191407,1.17188 -1.242187,0.42187 -3,0.42187 -1.886718,0 -3.398437,-0.35156 -1.5,-0.35156 -3.058594,-1.04297 v -2.90625 h 0.164063 q 1.324218,1.10156 3.058593,1.69922 1.734375,0.59765 3.257813,0.59765 2.15625,0 3.351562,-0.80859 1.207032,-0.80859 1.207032,-2.15625 0,-1.16016 -0.574219,-1.71094 -0.5625,-0.55078 -1.722656,-0.85547 -0.878907,-0.23437 -1.910157,-0.38671 -1.019531,-0.15235 -2.167968,-0.38672 -2.320313,-0.49219 -3.445313,-1.67578 -1.113281,-1.19532 -1.113281,-3.10547 0,-2.19141 1.851562,-3.58594 1.851563,-1.40625 4.699219,-1.40625 1.839844,0 3.375,0.35156 1.535156,0.35156 2.71875,0.86719 v 2.74219 h -0.164062 q -0.996094,-0.84375 -2.625,-1.39453 -1.617188,-0.5625 -3.316407,-0.5625 -1.863281,0 -3,0.77343 -1.125,0.77344 -1.125,1.99219 0,1.08984 0.5625,1.71094 0.5625,0.62109 1.980469,0.94922 0.75,0.16406 2.132813,0.39843 1.382812,0.23438 2.34375,0.48047 1.945312,0.51563 2.929687,1.5586 0.984375,1.04297 0.984375,2.91797 z"
       style=""
       id="path944" />
    <path
       d="M 93.295471,141.17429 H 87.061096 V 156.561 h -2.320312 v -15.38671 h -6.234375 v -2.0625 h 14.789062 z"
       style=""
       id="path946" />
    <path
       d="m 108.01422,156.561 h -2.47266 l -1.71093,-4.86328 h -7.546878 l -1.710937,4.86328 h -2.355469 l 6.351563,-17.44921 h 3.093751 z m -4.89844,-6.85546 -3.05859,-8.56641 -3.070313,8.56641 z"
       style=""
       id="path948" />
    <path
       d="m 125.21735,155.27194 q -1.42969,0.65625 -3.12891,1.14844 -1.6875,0.48047 -3.26953,0.48047 -2.03906,0 -3.73828,-0.5625 -1.69922,-0.5625 -2.89453,-1.6875 -1.20704,-1.13672 -1.86329,-2.83594 -0.65625,-1.71094 -0.65625,-3.99609 0,-4.1836 2.4375,-6.59766 2.44922,-2.42578 6.71485,-2.42578 1.48828,0 3.03515,0.36328 1.5586,0.35156 3.35157,1.20703 v 2.75391 h -0.21094 q -0.36328,-0.28125 -1.05469,-0.73828 -0.6914,-0.45703 -1.35937,-0.76172 -0.8086,-0.36328 -1.83985,-0.59766 -1.01953,-0.24609 -2.32031,-0.24609 -2.92969,0 -4.64062,1.88672 -1.69922,1.875 -1.69922,5.08593 0,3.38672 1.78125,5.27344 1.78125,1.875 4.85156,1.875 1.125,0 2.23828,-0.22265 1.125,-0.22266 1.96875,-0.57422 v -4.27735 h -4.67578 v -2.03906 h 6.97266 z"
       style=""
       id="path950" />
    <path
       d="m 140.76813,156.561 h -11.4961 v -17.44921 h 11.4961 v 2.0625 h -9.17578 v 4.78125 h 9.17578 v 2.0625 h -9.17578 v 6.48046 h 9.17578 z"
       style=""
       id="path952" />
    <path
       d="m 167.90875,145.63913 h -3.90234 l -1.07813,4.40625 h 3.60938 v 1.58203 h -4.01953 l -1.21875,4.93359 h -1.51172 l 1.21875,-4.93359 h -3.16406 l -1.21875,4.93359 h -1.51172 l 1.21875,-4.93359 h -3.49219 v -1.58203 h 3.90234 l 1.07813,-4.40625 h -3.60938 v -1.58203 h 4.01953 l 1.23047,-4.94531 h 1.51172 l -1.23047,4.94531 h 3.16407 l 1.23046,-4.94531 h 1.51172 l -1.23047,4.94531 h 3.49219 z m -5.3789,-0.0234 h -3.21094 l -1.10156,4.45313 h 3.21093 z"
       style=""
       id="path954" />
    <path
       d="m 187.54938,145.63913 h -3.90235 l -1.07812,4.40625 h 3.60937 v 1.58203 h -4.01953 L 180.94,156.561 h -1.51172 l 1.21875,-4.93359 h -3.16406 l -1.21875,4.93359 h -1.51172 l 1.21875,-4.93359 h -3.49219 v -1.58203 h 3.90235 l 1.07812,-4.40625 h -3.60937 v -1.58203 h 4.01953 l 1.23047,-4.94531 h 1.51172 l -1.23047,4.94531 h 3.16406 l 1.23047,-4.94531 h 1.51172 l -1.23047,4.94531 h 3.49219 z m -5.37891,-0.0234 h -3.21094 l -1.10156,4.45313 h 3.21094 z"
       style=""
       id="path956" />
    <path
       d="m 207.19,145.63913 h -3.90234 l -1.07813,4.40625 h 3.60938 v 1.58203 h -4.01953 l -1.21875,4.93359 h -1.51172 l 1.21875,-4.93359 h -3.16406 l -1.21875,4.93359 h -1.51172 l 1.21875,-4.93359 h -3.49219 v -1.58203 h 3.90234 l 1.07813,-4.40625 h -3.60938 v -1.58203 h 4.01953 l 1.23047,-4.94531 h 1.51172 l -1.23047,4.94531 h 3.16407 l 1.23046,-4.94531 h 1.51172 l -1.23047,4.94531 H 207.19 Z m -5.3789,-0.0234 h -3.21094 l -1.10156,4.45313 h 3.21093 z"
       style=""
       id="path958" />
    <path
       d="m 226.83063,145.63913 h -3.90235 l -1.07812,4.40625 h 3.60937 v 1.58203 H 221.44 l -1.21875,4.93359 h -1.51172 l 1.21875,-4.93359 h -3.16406 l -1.21875,4.93359 h -1.51172 l 1.21875,-4.93359 h -3.49219 v -1.58203 h 3.90235 l 1.07812,-4.40625 h -3.60937 v -1.58203 h 4.01953 l 1.23047,-4.94531 h 1.51172 l -1.23047,4.94531 h 3.16406 l 1.23047,-4.94531 h 1.51172 l -1.23047,4.94531 h 3.49219 z m -5.37891,-0.0234 h -3.21094 l -1.10156,4.45313 h 3.21094 z"
       style=""
       id="path960" />
    <path
       d="m 246.47125,145.63913 h -3.90234 l -1.07813,4.40625 h 3.60938 v 1.58203 h -4.01953 l -1.21875,4.93359 h -1.51172 l 1.21875,-4.93359 h -3.16406 l -1.21875,4.93359 h -1.51172 l 1.21875,-4.93359 h -3.49219 v -1.58203 h 3.90234 l 1.07813,-4.40625 h -3.60938 v -1.58203 h 4.01953 l 1.23047,-4.94531 h 1.51172 l -1.23047,4.94531 h 3.16407 l 1.23046,-4.94531 h 1.51172 l -1.23047,4.94531 h 3.49219 z m -5.3789,-0.0234 h -3.21094 l -1.10156,4.45313 h 3.21093 z"
       style=""
       id="path962" />
    <path
       d="m 266.11188,145.63913 h -3.90235 l -1.07812,4.40625 h 3.60937 v 1.58203 h -4.01953 l -1.21875,4.93359 h -1.51172 l 1.21875,-4.93359 h -3.16406 l -1.21875,4.93359 H 253.315 l 1.21875,-4.93359 h -3.49219 v -1.58203 h 3.90235 l 1.07812,-4.40625 h -3.60937 v -1.58203 h 4.01953 l 1.23047,-4.94531 h 1.51172 l -1.23047,4.94531 h 3.16406 l 1.23047,-4.94531 h 1.51172 l -1.23047,4.94531 h 3.49219 z m -5.37891,-0.0234 h -3.21094 l -1.10156,4.45313 h 3.21094 z"
       style=""
       id="path964" />
    <path
       d="m 285.7525,145.63913 h -3.90234 l -1.07813,4.40625 h 3.60938 v 1.58203 h -4.01953 l -1.21875,4.93359 h -1.51172 l 1.21875,-4.93359 h -3.16406 l -1.21875,4.93359 h -1.51172 l 1.21875,-4.93359 h -3.49219 v -1.58203 h 3.90234 l 1.07813,-4.40625 h -3.60938 v -1.58203 h 4.01953 l 1.23047,-4.94531 h 1.51172 l -1.23047,4.94531 h 3.16407 l 1.23046,-4.94531 h 1.51172 l -1.23047,4.94531 h 3.49219 z m -5.3789,-0.0234 h -3.21094 l -1.10156,4.45313 h 3.21093 z"
       style=""
       id="path966" />
  </g>
</svg>
